<svg id="Capa_1" enable-background="new 0 0 512 512" height="512" viewBox="0 0 512 512" width="512" xmlns="http://www.w3.org/2000/svg"><g><g><g><path d="m393.477 151.547v263.953c0 22.091-17.909 40-40 40h-275c-22.091 0-40-17.909-40-40v-368c0-22.091 17.909-40 40-40h171.197c7.968 0 15.608 3.17 21.236 8.809l113.803 114.047c5.612 5.625 8.764 13.246 8.764 21.191z" fill="#f9f8f9"/><path d="m393.477 151.55v7.59h-104.32c-25.94 0-47.04-21.13-47.04-47.1v-104.54h7.56c7.96 0 15.6 3.17 21.23 8.81l113.81 114.05c5.61 5.62 8.76 13.24 8.76 21.19z" fill="#f9f8f9"/><path d="m108.477 455.5h-30c-22.09 0-40-17.91-40-40v-368c0-22.09 17.91-40 40-40h30c-22.09 0-40 17.91-40 40v368c0 22.09 17.91 40 40 40z" fill="#e3e0e4"/><g fill="#a29aa5"><path d="m219.585 157.5h-123.7c-4.142 0-7.5-3.358-7.5-7.5s3.358-7.5 7.5-7.5h123.7c4.142 0 7.5 3.358 7.5 7.5s-3.358 7.5-7.5 7.5z"/><path d="m219.585 337.5h-123.7c-4.142 0-7.5-3.358-7.5-7.5s3.358-7.5 7.5-7.5h123.7c4.142 0 7.5 3.358 7.5 7.5s-3.358 7.5-7.5 7.5z"/><path d="m317.885 217.5h-224c-4.142 0-7.5-3.358-7.5-7.5s3.358-7.5 7.5-7.5h224c4.142 0 7.5 3.358 7.5 7.5s-3.358 7.5-7.5 7.5z"/><path d="m317.885 277.5h-224c-4.142 0-7.5-3.358-7.5-7.5s3.358-7.5 7.5-7.5h224c4.142 0 7.5 3.358 7.5 7.5s-3.358 7.5-7.5 7.5z"/></g><circle cx="371.884" cy="403" fill="#80e29e" r="101.5"/><path d="m452.957 464.07c-18.52 24.56-47.94 40.43-81.07 40.43-56.06 0-101.5-45.44-101.5-101.5 0-33.13 15.87-62.55 40.43-81.08-12.83 16.99-20.43 38.15-20.43 61.08 0 56.06 45.44 101.5 101.5 101.5 22.93 0 44.08-7.6 61.07-20.43z" fill="#77d192"/><path d="m393.477 151.55v17.59h-104.32c-31.45 0-57.04-25.62-57.04-57.1v-104.54h17.56c7.96 0 15.6 3.17 21.23 8.81l113.81 114.05c5.61 5.62 8.76 13.24 8.76 21.19z" fill="#e3e0e4"/><path d="m390.787 139.14h-101.63c-14.93 0-27.04-12.14-27.04-27.1v-101.82c3.24 1.46 6.23 3.52 8.79 6.09l113.81 114.05c2.55 2.56 4.61 5.54 6.07 8.78z" fill="#a29aa5"/></g><path d="m371.977 458.5c-8.28 0-15-6.72-15-15v-25.5h-25.5c-8.28 0-15-6.72-15-15s6.72-15 15-15h25.5v-25.5c0-8.28 6.72-15 15-15s15 6.72 15 15v25.5h25.5c8.28 0 15 6.72 15 15s-6.72 15-15 15h-25.5v25.5c0 8.28-6.72 15-15 15z" fill="#f9f8f9"/></g><g><path d="m219.977 15h29.743c1.687 0 3.339.203 4.945.562v96.474c0 19.08 15.496 34.603 34.542 34.603h96.263c.354 1.595.553 3.235.553 4.908v50.453c0 4.142 3.358 7.5 7.5 7.5s7.5-3.358 7.5-7.5v-50.453c0-10.001-3.891-19.408-10.955-26.488l-113.804-114.047c-7.086-7.101-16.513-11.012-26.545-11.012h-29.743c-4.142 0-7.5 3.358-7.5 7.5s3.359 7.5 7.501 7.5zm155.467 116.639h-86.237c-10.775 0-19.542-8.793-19.542-19.603v-86.401z"/><path d="m38.523 112.5c4.142 0 7.5-3.358 7.5-7.5v-57.5c0-17.92 14.58-32.5 32.5-32.5h106.454c4.142 0 7.5-3.358 7.5-7.5s-3.358-7.5-7.5-7.5h-106.454c-26.191 0-47.5 21.309-47.5 47.5v57.5c0 4.142 3.358 7.5 7.5 7.5z"/><path d="m95.93 157.5h123.701c4.142 0 7.5-3.358 7.5-7.5s-3.358-7.5-7.5-7.5h-123.701c-4.142 0-7.5 3.358-7.5 7.5s3.358 7.5 7.5 7.5z"/><path d="m95.93 322.5c-4.142 0-7.5 3.357-7.5 7.5s3.358 7.5 7.5 7.5h123.701c4.142 0 7.5-3.357 7.5-7.5s-3.358-7.5-7.5-7.5z"/><path d="m317.93 202.5h-224c-4.142 0-7.5 3.358-7.5 7.5s3.358 7.5 7.5 7.5h224c4.142 0 7.5-3.358 7.5-7.5s-3.357-7.5-7.5-7.5z"/><path d="m325.43 270c0-4.143-3.358-7.5-7.5-7.5h-224c-4.142 0-7.5 3.357-7.5 7.5s3.358 7.5 7.5 7.5h224c4.143 0 7.5-3.357 7.5-7.5z"/><path d="m401.023 297.936v-60.936c0-4.142-3.358-7.5-7.5-7.5s-7.5 3.358-7.5 7.5v57.903c-4.6-.594-9.288-.903-14.046-.903-14.311 0-28.225 2.732-41.355 8.121-3.832 1.572-5.664 5.954-4.091 9.786 1.573 3.831 5.952 5.664 9.786 4.091 11.315-4.644 23.313-6.998 35.661-6.998 6.867 0 13.561.747 20.013 2.152.012.002.023.005.035.008 42.231 9.211 73.952 46.888 73.952 91.841 0 51.832-42.168 94-94 94s-94-42.168-94-94c0-26.496 11.272-51.901 30.927-69.699 3.07-2.78 3.306-7.523.525-10.594-2.78-3.069-7.522-3.306-10.594-.525-22.789 20.637-35.859 50.094-35.859 80.818 0 16.037 3.483 31.275 9.73 45h-194.184c-17.92 0-32.5-14.579-32.5-32.5v-275.501c0-4.142-3.358-7.5-7.5-7.5s-7.5 3.358-7.5 7.5v275.5c0 26.191 21.309 47.5 47.5 47.5h202.501c19.526 29.501 53.003 49 90.952 49 60.103 0 109-48.897 109-109 .001-50.047-33.906-92.318-79.953-105.064z"/><path d="m371.977 340c-12.407 0-22.5 10.094-22.5 22.5v18h-18c-12.407 0-22.5 10.094-22.5 22.5s10.093 22.5 22.5 22.5h18v18c0 12.406 10.093 22.5 22.5 22.5s22.5-10.094 22.5-22.5v-18h18c12.407 0 22.5-10.094 22.5-22.5s-10.093-22.5-22.5-22.5h-18v-18c0-12.406-10.093-22.5-22.5-22.5zm40.5 55.5c4.136 0 7.5 3.364 7.5 7.5s-3.364 7.5-7.5 7.5h-25.5c-4.142 0-7.5 3.357-7.5 7.5v25.5c0 4.136-3.364 7.5-7.5 7.5s-7.5-3.364-7.5-7.5v-25.5c0-4.143-3.358-7.5-7.5-7.5h-25.5c-4.136 0-7.5-3.364-7.5-7.5s3.364-7.5 7.5-7.5h25.5c4.142 0 7.5-3.357 7.5-7.5v-25.5c0-4.136 3.364-7.5 7.5-7.5s7.5 3.364 7.5 7.5v25.5c0 4.143 3.358 7.5 7.5 7.5z"/></g></g></svg>