<svg id="Layer_1" enable-background="new 0 0 512.002 512.002" height="512" viewBox="0 0 512.002 512.002" width="512" xmlns="http://www.w3.org/2000/svg"><g><g clip-rule="evenodd" fill-rule="evenodd"><path d="m100.002 202.005h331.998v-30.002c0-10.997-9-19.999-20-19.999h-242v-30.002c0-11-9-20-20-20h-100c-11 0-20 9-20 20v355c0 13.807 11.193 25.001 25.001 25.001 13.807 0 25.001-11.193 25.001-25.001v-254.996c0-11.001 9-20.001 20-20.001z" fill="#ffbe90"/><g><path d="m370.999 110.003c-5.499 0-10-4.501-10-10v-90.003l100.003 100.003z" fill="#e8eaf0"/><path d="m360.999 100.003c0 5.499 4.501 10 10 10h90.003v341.998c0 5.5-4.503 10-10 10h-340c-5.5 0-10-4.5-10-10v-432.001c0-5.497 4.5-10 10-10h249.997z" fill="#fff"/></g><path d="m432 202.005h-331.998c-11 0-20 9-20 20v254.996c0 13.807-11.193 25.001-25.001 25.001h407.001c10.997 0 20-9.003 20-19.999v-259.998c0-10.997-9-20-20-20z" fill="#ffcd69"/></g><g><path d="m471.002 193.386v-83.384c0-2.652-1.054-5.196-2.929-7.071l-100.003-100.002c-1.876-1.875-4.419-2.929-7.071-2.929h-249.997c-11.028 0-20 8.972-20 20v72.002h-41.002c-16.542 0-30 13.458-30 30v355c0 19.3 15.701 35.001 35.001 35.001h407c16.542 0 30-13.458 30-30v-259.998c.001-13.408-8.841-24.787-20.999-28.619zm-100.003-159.243 65.861 65.86h-65.861zm-20-14.143v80.003c0 11.028 8.972 20 20 20h80.003v72.002h-340v-172.005zm-280.997 457.001c0 8.271-6.729 15.001-15.001 15.001s-15.001-6.73-15.001-15.001v-355c0-5.514 4.486-10 10-10h41.002v81.385c-12.158 3.832-21 15.211-21 28.618zm402 5.001c0 5.514-4.486 10-10 10h-375.38c2.167-4.549 3.38-9.635 3.38-15.001v-224.995h44.996c5.523 0 10-4.477 10-10s-4.477-10-10-10h-44.996v-10.001c0-5.514 4.486-10 10-10h362c5.514 0 10 4.486 10 10z"/><path d="m161.002 165.005h240c5.522 0 10-4.477 10-10s-4.478-10-10-10h-240c-5.523 0-10 4.477-10 10s4.477 10 10 10z"/><path d="m179.995 232.006c-5.523 0-10 4.477-10 10s4.477 10 10 10h.007c5.523 0 9.997-4.477 9.997-10s-4.481-10-10.004-10z"/></g></g></svg>